<svg id="Layer_1" data-name="Layer 1" xmlns="http://www.w3.org/2000/svg" viewBox="0 0 222.47 222.46"><defs><style>.cls-1{fill:#4fb26b;}.cls-2{fill:#b5d6a1;}.cls-3{fill:#26a157;}.cls-4{fill:#1a6136;}.cls-5{fill:#fff;}.cls-6{fill:#144236;}.cls-7{fill:#d1e3ab;}</style></defs><path class="cls-1" d="M18.41,56.5c10-9.09,22.79,6.11,25.05,8.75L45.84,68,58.09,82.09C62.2,86.82,66.24,91.62,70,96.61c4.35,5.74,15,15.9,30.21,5.21C118.08,89.3,126.35,88.88,127.75,89l1,.05c11.84.43,21.93,10.95,33.79,23.85,12.11,13.19,20.31,2.14,24.58,0s24.17-23.12,30.64-11.4c3.34,6,4.23,4.78,4.34,2.26a12.69,12.69,0,0,0,0-1.51c-.11-1.37-.25-2.74-.41-4.1l-1.06-7.06a110.3,110.3,0,0,0-9.92-29.62c-7.06-12.27-11.39-18-44.32-4.43s-44.76,4.61-69.91-2.31-42.23-8.31-60.23-7.16c-9.53.62-12.2-1.94-11.79-5.89A111.48,111.48,0,0,0,13,59.09c-.64,1.88.38,2,5.45-2.59"/><path class="cls-2" d="M36.25,47.54c18-1.16,35.07.23,60.23,7.15S133.4,70.6,166.39,57s37.26-7.84,44.32,4.43a111.63,111.63,0,0,0-33-39.41c-8.55-3.82-20.29-22.48-60-4S65.55,34.15,47.56,32.54C35.56,31.46,40,26,44.28,22.4h0A111.94,111.94,0,0,0,24.46,41.64c-.41,4,2.26,6.51,11.79,5.9"/><path class="cls-3" d="M221.14,128.46c.17-1.15.33-2.31.48-3.47.2-4.35-2.41-1.43-2.41-1.43l-16.37,17.79c-19.6,19.94-29.93,15.33-34.92,13.2S156.17,145.28,143.7,136s-24.58-.71-24.58-.71-11.05,7.12-27.43,18.17c-13.93,9.38-24-1.3-26.71-4.72-.9-1.13-1.79-2.27-2.71-3.38L50.36,131s-33.49-42.46-40.31-53a4,4,0,0,0-1.28-1.29c-1.09-.67-2.86-1-4.08,2.42A111.43,111.43,0,0,0,18,171.85c5.2-4,17.66,14.54,45.52,14.71s32.71-16.09,70.26-13.84,46.33,13.05,55,10.9c5.47-1.35,8.77-2.6,12.51-7.1A110.62,110.62,0,0,0,221,129.35c0-.28.09-.58.15-.89"/><path class="cls-4" d="M188.78,183.62c-8.71,2.15-17.48-8.65-55-10.9s-42.4,14-70.26,13.84S23.16,167.88,18,171.85A111.25,111.25,0,0,0,96.53,221.5c-.07-.08-8.17-8.95,6.57-11.25a32.71,32.71,0,0,1,9.11-.11,116.77,116.77,0,0,1,17.9,3.6s11.59,2.94,21.63-4c8-5.55,13.49-2.51,10.95.11a111.81,111.81,0,0,0,38.6-33.35c-3.74,4.5-7,5.75-12.51,7.1"/><path class="cls-5" d="M9.75,77.59C15.8,87.21,50.36,131,50.36,131L61,143.81c1.39,1.68,2.75,3.38,4.12,5.08,2.85,3.55,12.84,13.86,26.6,4.59,16.38-11,27.43-18.17,27.43-18.17s12.11-8.55,24.58.71,19.24,16.39,24.22,18.53,15.32,6.74,34.92-13.2l16.37-17.79s2.61-2.92,2.41,1.43a113.6,113.6,0,0,0,.85-13.76q0-4.23-.32-8.39c0,3-.64,5.33-4.35-1.38-6.47-11.72-26.36,9.27-30.64,11.4s-12.47,13.19-24.58,0c-11.86-12.9-22-23.42-33.79-23.85l-1-.05c-1.4-.08-9.67.34-27.51,12.86C85.43,112.21,75,102.9,70.4,97.1c-4-5.08-8.06-10.12-12.31-15L45.84,68l-2.38-2.76c-2.26-2.64-15-17.84-25-8.75C13.34,61.1,12.32,61,13,59.09A110.82,110.82,0,0,0,4.69,79.2c1.88-5.3,5.06-1.61,5.06-1.61"/><path class="cls-6" d="M151.74,209.76c-10,6.92-21.63,4-21.63,4a116.77,116.77,0,0,0-17.9-3.6,32.71,32.71,0,0,0-9.11.11c-14.74,2.3-6.64,11.17-6.57,11.25a113.19,113.19,0,0,0,14.7,1,110.78,110.78,0,0,0,45.62-9.75,6.21,6.21,0,0,1,2.38-1.11c1.17-.56,2.32-1.14,3.46-1.73,2.54-2.62-2.91-5.66-10.95-.11"/><path class="cls-7" d="M47.56,32.54C65.55,34.15,78,36.46,117.7,18s51.43.2,60,4a111.25,111.25,0,0,0-133.38.37h0C40,26,35.56,31.46,47.56,32.54"/></svg>