<svg id="Layer_1" data-name="Layer 1" xmlns="http://www.w3.org/2000/svg" viewBox="0 0 485.73 222.46"><defs><style>.cls-1{fill:#ffffff;}</style></defs><polygon class="cls-1" points="81.09 105.68 66.28 50.96 51.35 105.68 28.09 105.68 2.84 17.13 25.18 17.13 40.64 72.9 55.84 17.13 76.59 17.13 91.79 72.9 107.26 17.13 129.73 17.13 104.48 105.68 81.09 105.68"/><path class="cls-1" d="M149,65h27.36c-2-7.14-7.27-10.44-13.35-10.44A14.53,14.53,0,0,0,149,65m-.4,13c1.72,7.93,7.14,12.82,14.27,12.82,4.89,0,10.58-1.19,14.15-7.67l18.76,3.83c-5.68,14-17.71,20.75-32.91,20.75-19.16,0-35-14.14-35-35.15S143.74,37.35,163,37.35c18.76,0,33.83,13.48,34.23,35.16v5.42Z"/><path class="cls-1" d="M236.13,91.94c5.55,0,8.59-2.38,8.59-5.29,0-2.25-1.72-4-6.61-4.89l-13.48-2.64c-12.29-2.25-19.3-8.86-19.3-19.3,0-13.62,11.77-22.47,28.55-22.47,16.52,0,27.49,7.53,30.14,19l-19.3,3.83c-.66-4.09-4.63-7.79-11.1-7.79-5.69,0-7.54,2.77-7.54,5.15,0,1.85.8,3.7,5,4.63l15.59,3.17c12.56,2.64,18.38,10.18,18.38,20,0,14.67-12.69,22.33-30.14,22.33-15.6,0-28.95-5.68-31.19-19.29l20.62-4.23c.92,5.68,6.08,7.8,11.76,7.8"/><path class="cls-1" d="M303,91.94c5.55,0,8.59-2.38,8.59-5.29,0-2.25-1.72-4-6.61-4.89l-13.48-2.64c-12.29-2.25-19.3-8.86-19.3-19.3,0-13.62,11.77-22.47,28.55-22.47,16.53,0,27.5,7.53,30.14,19l-19.3,3.83c-.66-4.09-4.62-7.79-11.1-7.79-5.68,0-7.53,2.77-7.53,5.15,0,1.85.79,3.7,5,4.63l15.6,3.17C326.14,68,332,75.55,332,85.33c0,14.67-12.69,22.33-30.14,22.33-15.59,0-28.94-5.68-31.19-19.29l20.62-4.23c.92,5.68,6.08,7.8,11.76,7.8"/><path class="cls-1" d="M359.58,65h27.36c-2-7.14-7.27-10.44-13.35-10.44a14.55,14.55,0,0,0-14,10.44m-.39,13c1.72,7.93,7.14,12.82,14.27,12.82,4.89,0,10.58-1.19,14.14-7.67l18.77,3.83c-5.68,14-17.71,20.75-32.91,20.75-19.16,0-35-14.14-35-35.15s15.86-35.16,35.15-35.16c18.77,0,33.84,13.48,34.24,35.16v5.42Z"/><polygon class="cls-1" points="460.7 105.68 448.01 86.52 435.19 105.68 411 105.68 432.81 73.56 411 39.2 435.19 39.2 448.01 59.82 460.7 39.2 485.02 39.2 463.08 73.56 485.02 105.68 460.7 105.68"/><rect class="cls-1" x="2.84" y="117.84" width="20.44" height="82.98"/><path class="cls-1" d="M100.68,162.67v38.15H81V166.88c0-7.3-4.34-12.26-10.65-12.26-7.81,0-12.88,5.33-12.88,17.34v28.86H37.64V138.65H57.46v5.94a25.64,25.64,0,0,1,19.07-7.8c14.49,0,24.15,10.28,24.15,25.88"/><path class="cls-1" d="M143.28,202.68c-15.48,0-24.76-8.43-24.76-24.77V154.38H107.24V138.65h11.28V120.32h19.81v18.33h18.33v15.73H138.33v21.54c0,6.45,3.1,9.05,8.3,9.05a20.21,20.21,0,0,0,9-2.48l4.58,15.6a33.67,33.67,0,0,1-17,4.59"/><path class="cls-1" d="M182.3,162.67h25.63c-1.85-6.68-6.81-9.78-12.5-9.78a13.62,13.62,0,0,0-13.13,9.78m-.37,12.14c1.61,7.43,6.68,12,13.37,12,4.58,0,9.91-1.11,13.25-7.18l17.59,3.59c-5.32,13.13-16.6,19.45-30.84,19.45-18,0-32.82-13.26-32.82-33s14.86-32.94,33-32.94c17.58,0,31.7,12.63,32.07,32.94v5.08Z"/><path class="cls-1" d="M283.48,138.28l-.86,19.81H279c-13.87,0-21.42,7.18-21.42,23.28v19.45H237.78V138.65H257.6v11.89c4.46-7.43,11.27-12.76,21.42-12.76a16.57,16.57,0,0,1,4.46.5"/><path class="cls-1" d="M354.94,162.67v38.15H335.25V166.88c0-7.3-4.33-12.26-10.65-12.26-7.8,0-12.88,5.33-12.88,17.34v28.86H291.91V138.65h19.81v5.94a25.65,25.65,0,0,1,19.07-7.8c14.49,0,24.15,10.28,24.15,25.88"/><path class="cls-1" d="M384.17,162.67h25.64C408,156,403,152.89,397.3,152.89a13.63,13.63,0,0,0-13.13,9.78m-.37,12.14c1.61,7.43,6.69,12,13.38,12,4.58,0,9.91-1.11,13.25-7.18L428,183.23c-5.33,13.13-16.6,19.45-30.84,19.45-18,0-32.82-13.26-32.82-33s14.86-32.94,32.94-32.94c17.59,0,31.71,12.63,32.08,32.94v5.08Z"/><path class="cls-1" d="M468.76,202.68c-15.48,0-24.77-8.43-24.77-24.77V154.38H432.72V138.65H444V120.32h19.82v18.33h18.33v15.73H463.81v21.54c0,6.45,3.09,9.05,8.3,9.05a20.21,20.21,0,0,0,9-2.48l4.58,15.6a33.67,33.67,0,0,1-17,4.59"/></svg>
