<svg xmlns="http://www.w3.org/2000/svg" width="128" height="128">
  <path fill="#d1e2ac" d="M0 0h128v128H0z"/>
  <path fill="#b4d6a1" d="M0 128h128V23c-10 6-26 7-32 0-19-10-34 20-60 8l-13-9c-7-6-15-3-23 1z"/>
  <path fill="#4fb26b" d="M0 128h128V49c-10-2-24-6-34-11a59 59 0 00-9-4h1-1c-7-4-30 9-38 5l-7-4c-14-1-21 21-30 16L0 49z"/>
  <path fill="#26a156" d="M128 71l-8 5a6 6 0 01-4 0 9 9 0 01-4-3l-5-7c-3-3-14 0-17-4l-2-4c-13-20-18-17-32-5-2 1-23 17-25 20-10 9-12-3-21-6-5-1-5 0-10 4v57h128z"/>
  <path fill="#1a6136" d="M0 128h128V83c-5 2-8 4-14 5s-12-2-16-5a8 8 0 00-5-1c-8 0-24 7-32 5-12-3-22-1-34 0-4-2-18-6-27-4z"/>
  <path fill="#144235" d="M125 98c-19 1-32 4-54 7-15 1-39-8-45-9a36 36 0 00-5 0 9 9 0 00-6 2 14 14 0 01-2 1 11 11 0 01-5 0 33 33 0 00-8-2v31h128V97a10 10 0 00-3 1zM14 99"/>
</svg>