<?xml version="1.0" encoding="UTF-8" standalone="no"?>
<svg
   xmlns:dc="http://purl.org/dc/elements/1.1/"
   xmlns:cc="http://creativecommons.org/ns#"
   xmlns:rdf="http://www.w3.org/1999/02/22-rdf-syntax-ns#"
   xmlns:svg="http://www.w3.org/2000/svg"
   xmlns="http://www.w3.org/2000/svg"
   viewPort="0 0 70 100"
   viewBox="300 250 10 70"
   id="svg2"
   height="50"
   width="180"
   version="1.1">

  <defs
     id="defs60" />
  <g
     id="g4">
    <path
       id="path6"
       style="fill:#ffffff;fill-rule:evenodd"
       d="m 402.5618,305.0514 -5.0731,-8.6815 c -4.5157,4.4251 -12.7412,5.7274 -18.3598,3.1177 -2.0156,-0.9345 -3.7581,-2.2136 -5.2272,-3.837 -1.4694,-1.6253 -2.6131,-3.5255 -3.4297,-5.7023 -0.8192,-2.1775 -1.2281,-4.5074 -1.2281,-6.9944 0,-2.5095 0.4089,-4.8572 1.2281,-7.0485 0.8166,-2.1889 1.9603,-4.0963 3.4297,-5.7198 1.4691,-1.6247 3.2116,-2.9102 5.2272,-3.8567 2.0135,-0.9477 4.2304,-1.4211 6.6492,-1.4211 1.9199,0 3.7318,0.3077 5.4385,0.9232 2.5051,0.9036 4.1768,2.137 6.2782,3.6373 l 0.8694,-1.535 3.4478,-6.0879 0.7029,-1.2412 c -2.4315,-2.0929 -6.8582,-4.1062 -8.6313,-4.6819 -2.5369,-0.8234 -5.2152,-1.2366 -8.0344,-1.2366 -2.5135,0 -4.9255,0.3383 -7.2365,1.0143 -2.3115,0.6776 -4.4739,1.6243 -6.489,2.8414 -2.0147,1.2177 -3.8464,2.689 -5.4926,4.4118 -1.6483,1.7222 -3.0636,3.6339 -4.2495,5.7377 -1.1853,2.1042 -2.0978,4.3545 -2.7388,6.7524 -0.639,2.3998 -0.9587,4.904 -0.9587,7.5106 0,2.6079 0.3197,5.1121 0.9587,7.5101 0.641,2.3999 1.5535,4.6384 2.7388,6.7167 1.1859,2.0805 2.6012,3.975 4.2495,5.6847 1.6462,1.7094 3.4779,3.1797 5.4926,4.4093 2.0151,1.2307 4.1775,2.1783 6.489,2.8418 2.311,0.6636 4.723,0.9959 7.2365,0.9959 4.795,0 9.4917,-1.3389 13.5837,-3.8377 1.0971,-0.6698 2.1403,-1.4111 3.1289,-2.2233 z" />
    <path
       id="path8"
       style="fill:#d35002;fill-rule:evenodd"
       d="m 384.4321,273.7151 c -4.8645,2.8473 -7.3165,5.9991 -7.3551,9.1639 l -4e-4,0.0201 8e-4,0.0334 c 0.0454,3.1602 2.4971,6.3073 7.3547,9.1506 0.6753,0.3482 1.0955,0.5112 1.4171,0.5471 l 2e-4,0 c 0.3216,-0.0359 0.7418,-0.1989 1.4169,-0.5471 4.86,-2.8447 7.312,-5.9934 7.355,-9.1553 l 5e-4,-0.0287 -4e-4,-0.0204 c -0.0388,-3.1646 -2.4908,-6.3164 -7.3551,-9.1636 -0.6751,-0.3483 -1.0953,-0.5113 -1.4169,-0.5472 l -2e-4,0 c -0.3216,0.0359 -0.7418,0.1989 -1.4171,0.5472 z" />
    <path
       id="path10"
       style="fill:#ffffff;fill-rule:evenodd"
       d="m 194.2342,255.4962 0,54.8028 10.3471,0 0,-20.407 20.6928,0 0,-9.7058 -20.6928,-2e-4 0,-14.7633 26.5594,0 c 0,-3.3089 0,-6.6176 0,-9.9265 0,0 -33.7108,0 -36.9065,0 z" />
    <path
       id="path12"
       style="fill:#ffffff;fill-rule:evenodd"
       d="m 322.9158,300.1889 0,-13.3971 21.0489,0 0,-10.0015 -21.0489,0 0,-11.1821 27.0563,0 0,-8.2226 0,-1.8894 -37.5456,0 2e-4,54.8028 38.3282,0 0,-10.1101 -27.8391,0 z" />
    <path
       id="path14"
       style="fill:#ffffff;fill-rule:evenodd"
       d="m 269.0537,293.2127 13.0344,-37.7166 11.5804,0 5.6693,54.8029 -10.0998,0 -3.7938,-36.4982 c -1.9917,5.7092 -3.9702,11.3673 -5.9373,16.9754 -2.1422,6.1066 -4.2411,12.2265 -6.3535,18.3435 l -2.7973,0 -2.6047,0 -2.7974,0 c -2.1124,-6.117 -4.2113,-12.2369 -6.3534,-18.3435 -1.9672,-5.6081 -3.9457,-11.2662 -5.9373,-16.9754 l -3.7939,36.4982 -10.0998,0 5.6693,-54.8029 11.5805,0 13.0343,37.7166 z" />
  </g>
</svg>
